<svg width="192" height="192" viewBox="0 0 192 192" xmlns="http://www.w3.org/2000/svg">
  <rect width="192" height="192" fill="#6366f1" rx="32"/>
  <path d="M96 48C78.3 48 64 62.3 64 80v32c0 17.7 14.3 32 32 32s32-14.3 32-32V80c0-17.7-14.3-32-32-32zm0 16c8.8 0 16 7.2 16 16v32c0 8.8-7.2 16-16 16s-16-7.2-16-16V80c0-8.8 7.2-16 16-16z" fill="white"/>
  <path d="M48 112c0 26.5 21.5 48 48 48s48-21.5 48-48h-16c0 17.7-14.3 32-32 32s-32-14.3-32-32H48z" fill="white"/>
  <rect x="88" y="144" width="16" height="16" fill="white" rx="2"/>
</svg>
